<?xml version="1.0" encoding="UTF-8"?>
<svg xmlns="http://www.w3.org/2000/svg" xmlns:xlink="http://www.w3.org/1999/xlink" width="64px" height="56px" viewBox="0 0 64 56" version="1.1">
<g id="surface1">
<path style=" stroke:none;fill-rule:nonzero;fill:rgb(0%,0%,0%);fill-opacity:1;" d="M 56.871094 16.59375 C 56.742188 16.457031 56.609375 16.320312 56.472656 16.191406 C 56.335938 16.0625 56.207031 15.921875 56.070312 15.792969 C 55.9375 15.664062 55.808594 15.519531 55.671875 15.390625 C 55.535156 15.265625 55.40625 15.121094 55.273438 14.992188 C 55.136719 14.863281 55.007812 14.71875 54.871094 14.59375 C 54.734375 14.464844 54.609375 14.320312 54.472656 14.191406 C 54.335938 14.0625 54.207031 13.921875 54.070312 13.792969 C 58.039062 17.691406 60.3125 22.996094 60.398438 28.558594 C 60.398438 41.816406 46.945312 52.601562 30.398438 52.601562 C 21.136719 52.601562 12.847656 49.214844 7.335938 43.910156 L 7.734375 44.3125 L 8.136719 44.710938 L 8.535156 45.113281 L 8.9375 45.511719 L 9.335938 45.910156 L 9.734375 46.3125 L 10.136719 46.710938 C 15.640625 52.238281 24.113281 55.800781 33.601562 55.800781 C 50.144531 55.800781 63.601562 45.015625 63.601562 31.800781 C 63.601562 26.152344 61.167969 20.800781 56.871094 16.59375 Z M 56.871094 16.59375 "/>
<path style=" stroke:none;fill-rule:nonzero;fill:rgb(98.431373%,94.117647%,87.450981%);fill-opacity:1;" d="M 58.398438 28.558594 C 58.398438 40.726562 45.863281 50.59375 30.398438 50.59375 C 14.9375 50.59375 2.398438 40.726562 2.398438 28.558594 C 2.398438 21.015625 7.199219 14.351562 14.574219 10.398438 C 21.953125 6.449219 26.542969 2.398438 30.398438 2.398438 C 34.257812 2.398438 37.550781 5.703125 46.222656 10.398438 C 53.601562 14.351562 58.398438 21.015625 58.398438 28.558594 Z M 58.398438 28.558594 "/>
<path style=" stroke:none;fill-rule:nonzero;fill:rgb(96.470588%,87.058824%,80.784315%);fill-opacity:1;" d="M 58.398438 28.558594 C 58.394531 26.996094 58.179688 25.441406 57.761719 23.9375 C 55.574219 50.574219 23.078125 51.855469 10.304688 43.886719 C 16.046875 48.339844 23.132812 50.703125 30.398438 50.59375 C 45.839844 50.59375 58.398438 40.710938 58.398438 28.558594 Z M 58.398438 28.558594 "/>
<path style=" stroke:none;fill-rule:nonzero;fill:rgb(100%,99.607843%,98.823529%);fill-opacity:1;" d="M 19.625 8.9375 C 23.199219 6.792969 27.953125 2.769531 32.625 2.761719 C 31.90625 2.527344 31.15625 2.40625 30.398438 2.398438 C 28.464844 2.398438 26.398438 3.398438 23.800781 4.902344 C 22.894531 5.433594 21.960938 6.015625 20.96875 6.625 C 19.105469 7.777344 16.96875 9.078125 14.566406 10.382812 C 6.953125 14.503906 2.398438 21.296875 2.398438 28.558594 C 2.398438 28.878906 2.398438 29.199219 2.398438 29.511719 C 7.246094 12.382812 16.054688 11.078125 19.625 8.9375 Z M 19.625 8.9375 "/>
<path style=" stroke:none;fill-rule:evenodd;fill:rgb(80.000001%,74.509805%,65.490198%);fill-opacity:1;" d="M 28.097656 4.425781 C 28.117188 8.246094 26.472656 11.890625 23.59375 14.398438 C 23.367188 14.601562 23.542969 14.984375 23.832031 14.871094 C 26.527344 13.824219 30.167969 10.6875 28.632812 4.359375 C 28.566406 4 28.097656 4.097656 28.097656 4.425781 Z M 29.910156 4.425781 C 31.894531 7.65625 32.363281 11.59375 31.199219 15.199219 C 31.105469 15.480469 31.449219 15.71875 31.640625 15.488281 C 33.390625 13.246094 34.921875 8.800781 30.34375 4 C 30.113281 3.792969 29.753906 4.113281 29.910156 4.390625 Z M 32.121094 4.289062 C 35.222656 6.484375 37.21875 9.914062 37.601562 13.695312 C 37.582031 13.835938 37.679688 13.964844 37.816406 13.988281 C 37.957031 14.011719 38.089844 13.921875 38.121094 13.785156 C 38.855469 10.992188 38.441406 6.230469 32.382812 3.761719 C 32.0625 3.632812 31.855469 4.0625 32.121094 4.257812 Z M 17.351562 12.609375 C 21.039062 11.507812 24.085938 8.886719 25.726562 5.40625 C 25.871094 5.121094 26.328125 5.230469 26.257812 5.550781 C 24.871094 11.953125 20.238281 13.289062 17.359375 13.113281 C 17.054688 13.121094 17.0625 12.695312 17.351562 12.609375 Z M 17.351562 12.609375 "/>
<path style=" stroke:none;fill-rule:nonzero;fill:rgb(0%,0%,0%);fill-opacity:1;" d="M 30.398438 52.601562 C 13.855469 52.601562 0.398438 41.816406 0.398438 28.558594 C 0.398438 20.558594 5.34375 13.097656 13.625 8.625 C 16.023438 7.34375 18.078125 6.054688 19.910156 4.929688 C 20.921875 4.304688 21.871094 3.71875 22.792969 3.175781 C 25.601562 1.511719 28 0.398438 30.398438 0.398438 C 32.800781 0.398438 34.894531 1.359375 37.519531 2.910156 C 38.320312 3.367188 39.121094 3.863281 39.976562 4.40625 C 41.96875 5.640625 44.214844 7.03125 47.175781 8.625 C 55.457031 13.097656 60.398438 20.550781 60.398438 28.558594 C 60.398438 41.816406 46.945312 52.601562 30.398438 52.601562 Z M 30.398438 2.398438 C 28.464844 2.398438 26.398438 3.398438 23.800781 4.902344 C 22.894531 5.433594 21.960938 6.015625 20.96875 6.625 C 19.105469 7.777344 16.96875 9.078125 14.566406 10.382812 C 6.953125 14.503906 2.398438 21.296875 2.398438 28.558594 C 2.398438 40.710938 14.960938 50.601562 30.398438 50.601562 C 45.839844 50.601562 58.398438 40.710938 58.398438 28.558594 C 58.398438 21.296875 53.847656 14.503906 46.222656 10.398438 C 43.199219 8.800781 40.839844 7.296875 38.929688 6.113281 C 38.054688 5.574219 37.257812 5.078125 36.527344 4.640625 C 34.105469 3.199219 32.335938 2.398438 30.398438 2.398438 Z M 30.398438 2.398438 "/>
<path style=" stroke:none;fill-rule:nonzero;fill:rgb(71.764708%,7.843138%,13.333334%);fill-opacity:1;" d="M 36.039062 34.398438 C 35.679688 35.871094 34.863281 37.191406 33.703125 38.167969 C 32.835938 39.011719 31.707031 39.539062 30.503906 39.671875 C 29.261719 39.5625 28.097656 39.03125 27.199219 38.167969 C 26.054688 37.1875 25.246094 35.867188 24.894531 34.398438 C 24.871094 34.222656 24.933594 34.046875 25.058594 33.917969 C 25.183594 33.792969 25.359375 33.730469 25.535156 33.753906 L 35.40625 33.753906 C 35.582031 33.734375 35.757812 33.796875 35.882812 33.921875 C 36.003906 34.050781 36.0625 34.226562 36.039062 34.398438 Z M 36.039062 34.398438 "/>
<path style=" stroke:none;fill-rule:nonzero;fill:rgb(100%,38.039216%,39.215687%);fill-opacity:1;" d="M 27.199219 38.230469 C 28.097656 39.09375 29.257812 39.628906 30.496094 39.753906 C 31.730469 39.628906 32.890625 39.09375 33.785156 38.230469 C 34.070312 37.964844 34.335938 37.679688 34.585938 37.375 C 33.589844 36.246094 32.167969 35.578125 30.664062 35.527344 C 29.046875 35.566406 27.550781 36.398438 26.664062 37.753906 C 26.847656 37.921875 27.007812 38.078125 27.199219 38.230469 Z M 27.199219 38.230469 "/>
<path style=" stroke:none;fill-rule:nonzero;fill:rgb(0%,0%,0%);fill-opacity:1;" d="M 27.328125 37.601562 C 28.132812 36.5625 29.367188 35.949219 30.679688 35.9375 C 31.878906 35.972656 33.019531 36.453125 33.878906 37.289062 C 34.0625 37.089844 34.238281 36.878906 34.40625 36.671875 C 33.390625 35.703125 32.046875 35.152344 30.640625 35.128906 C 29.121094 35.140625 27.683594 35.832031 26.726562 37.015625 C 26.917969 37.222656 27.117188 37.417969 27.328125 37.601562 Z M 27.328125 37.601562 "/>
<path style=" stroke:none;fill-rule:nonzero;fill:rgb(0%,0%,0%);fill-opacity:1;" d="M 30.472656 40.152344 C 29.140625 40.035156 27.882812 39.472656 26.910156 38.550781 C 25.671875 37.503906 24.800781 36.089844 24.425781 34.511719 C 24.367188 34.226562 24.445312 33.933594 24.632812 33.710938 C 24.855469 33.445312 25.1875 33.292969 25.535156 33.304688 L 35.40625 33.304688 C 35.753906 33.296875 36.085938 33.445312 36.3125 33.710938 C 36.496094 33.933594 36.570312 34.230469 36.511719 34.511719 C 36.132812 36.089844 35.261719 37.503906 34.023438 38.550781 C 33.054688 39.46875 31.800781 40.035156 30.472656 40.152344 Z M 25.535156 34.230469 C 25.40625 34.230469 25.375 34.289062 25.367188 34.304688 C 25.707031 35.671875 26.472656 36.894531 27.550781 37.800781 C 28.34375 38.578125 29.371094 39.070312 30.472656 39.199219 C 31.570312 39.074219 32.597656 38.585938 33.390625 37.816406 C 34.46875 36.910156 35.230469 35.6875 35.566406 34.320312 Z M 25.535156 34.230469 "/>
<path style=" stroke:none;fill-rule:nonzero;fill:rgb(99.607843%,73.333335%,81.568629%);fill-opacity:1;" d="M 47.257812 32.144531 C 47.257812 30.625 45.160156 29.390625 42.574219 29.390625 C 39.992188 29.390625 37.894531 30.625 37.894531 32.144531 C 37.894531 33.664062 39.992188 34.894531 42.574219 34.894531 C 45.160156 34.894531 47.257812 33.664062 47.257812 32.144531 Z M 47.257812 32.144531 "/>
<path style=" stroke:none;fill-rule:nonzero;fill:rgb(99.607843%,73.333335%,81.568629%);fill-opacity:1;" d="M 23.039062 32.144531 C 23.039062 30.625 20.945312 29.390625 18.359375 29.390625 C 15.773438 29.390625 13.679688 30.625 13.679688 32.144531 C 13.679688 33.664062 15.773438 34.894531 18.359375 34.894531 C 20.945312 34.894531 23.039062 33.664062 23.039062 32.144531 Z M 23.039062 32.144531 "/>
<path style=" stroke:none;fill-rule:evenodd;fill:rgb(0%,0%,0%);fill-opacity:1;" d="M 20.558594 31.039062 C 22.996094 31.042969 24.972656 29.074219 24.976562 26.636719 C 24.980469 24.203125 23.007812 22.226562 20.570312 22.222656 C 18.136719 22.222656 16.160156 24.195312 16.160156 26.632812 C 16.160156 29.0625 18.128906 31.035156 20.558594 31.039062 Z M 40.375 31.039062 C 42.160156 31.054688 43.777344 29.988281 44.472656 28.339844 C 45.164062 26.695312 44.792969 24.792969 43.535156 23.527344 C 42.277344 22.257812 40.378906 21.875 38.730469 22.554688 C 37.078125 23.238281 36 24.847656 36 26.632812 C 35.996094 29.054688 37.953125 31.027344 40.375 31.039062 Z M 40.375 31.039062 "/>
<path style=" stroke:none;fill-rule:evenodd;fill:rgb(100%,100%,100%);fill-opacity:1;" d="M 19.199219 26.910156 C 19.871094 26.914062 20.476562 26.515625 20.734375 25.894531 C 20.996094 25.277344 20.855469 24.5625 20.382812 24.085938 C 19.910156 23.613281 19.195312 23.46875 18.574219 23.726562 C 17.957031 23.980469 17.550781 24.585938 17.550781 25.257812 C 17.550781 26.167969 18.289062 26.90625 19.199219 26.910156 Z M 39.015625 26.910156 C 39.6875 26.914062 40.292969 26.515625 40.550781 25.894531 C 40.808594 25.277344 40.671875 24.5625 40.199219 24.085938 C 39.726562 23.613281 39.011719 23.46875 38.390625 23.726562 C 37.773438 23.980469 37.367188 24.585938 37.367188 25.257812 C 37.367188 26.160156 38.09375 26.898438 39 26.910156 Z M 39.015625 26.910156 "/>
</g>
</svg>
