<?xml version="1.0" encoding="UTF-8"?>
<svg xmlns="http://www.w3.org/2000/svg" xmlns:xlink="http://www.w3.org/1999/xlink" width="24px" height="24px" viewBox="0 0 24 24" version="1.1">
<g id="surface1">
<path style=" stroke:none;fill-rule:nonzero;fill:rgb(54.11765%,61.176473%,99.607843%);fill-opacity:1;" d="M 20.964844 3.863281 L 20.964844 22.246094 C 18.382812 19.964844 19.210938 20.71875 16.210938 17.933594 L 16.40625 19.828125 L 5.136719 19.828125 C 3.976562 19.828125 3.035156 18.886719 3.035156 17.71875 L 3.035156 3.863281 C 3.035156 2.695312 3.976562 1.753906 5.136719 1.753906 L 18.863281 1.753906 C 20.023438 1.753906 20.964844 2.695312 20.964844 3.863281 Z M 20.964844 3.863281 "/>
<path style=" stroke:none;fill-rule:nonzero;fill:rgb(99.215686%,99.215686%,99.215686%);fill-opacity:1;" d="M 16.570312 7.605469 C 15.09375 6.5 13.691406 6.527344 13.691406 6.527344 L 13.546875 6.691406 C 15.289062 7.226562 16.097656 7.992188 16.097656 7.992188 C 13.664062 6.660156 10.804688 6.660156 8.445312 7.695312 C 8.066406 7.871094 7.839844 7.992188 7.839844 7.992188 C 7.839844 7.992188 8.691406 7.183594 10.535156 6.652344 L 10.433594 6.527344 C 10.433594 6.527344 9.027344 6.5 7.554688 7.605469 C 7.554688 7.605469 6.078125 10.277344 6.078125 13.578125 C 6.078125 13.578125 6.9375 15.0625 9.203125 15.136719 C 9.203125 15.136719 9.582031 14.675781 9.890625 14.285156 C 8.589844 13.894531 8.097656 13.074219 8.097656 13.074219 C 8.246094 13.179688 8.496094 13.316406 8.515625 13.332031 C 10.246094 14.300781 12.703125 14.617188 14.910156 13.691406 C 15.269531 13.558594 15.667969 13.363281 16.089844 13.085938 C 16.089844 13.085938 15.574219 13.925781 14.234375 14.304688 C 14.539062 14.695312 14.910156 15.136719 14.910156 15.136719 C 17.175781 15.0625 18.042969 13.578125 18.042969 13.578125 C 18.042969 10.277344 16.570312 7.605469 16.570312 7.605469 Z M 10.144531 12.625 C 9.570312 12.625 9.101562 12.113281 9.101562 11.488281 C 9.101562 10.863281 9.5625 10.351562 10.144531 10.351562 C 10.730469 10.351562 11.199219 10.863281 11.191406 11.488281 C 11.191406 12.113281 10.730469 12.625 10.144531 12.625 Z M 13.886719 12.625 C 13.3125 12.625 12.839844 12.113281 12.839844 11.488281 C 12.839844 10.863281 13.300781 10.351562 13.886719 10.351562 C 14.46875 10.351562 14.929688 10.863281 14.929688 11.488281 C 14.929688 12.113281 14.46875 12.625 13.886719 12.625 Z M 13.886719 12.625 "/>
</g>
</svg>
