<svg width="65" height="38" viewBox="0 0 65 38" fill="none" xmlns="http://www.w3.org/2000/svg">
<path d="M64.1875 36.59C61.8595 37.182 60.4195 36.616 59.1275 34.676L49.9395 21.964L48.6115 20.204L37.8815 34.718C36.6555 36.464 35.3695 37.224 33.0815 36.606L46.8215 18.162L34.0295 1.50202C36.2295 1.07402 37.7495 1.29202 39.0995 3.26202L48.6295 16.132L58.2295 3.33202C59.4595 1.58602 60.7815 0.922017 62.9895 1.56602L58.0295 8.14202L51.3095 16.892C50.5095 17.892 50.6195 18.576 51.3555 19.542L64.1875 36.59ZM0.2035 17.854L1.3275 12.326C4.3875 1.38602 16.9275 -3.15998 25.5755 3.60002C30.6295 7.57602 31.8855 13.2 31.6355 19.5H3.1475C2.7195 30.84 10.8815 37.684 21.2875 34.192C24.9375 32.966 27.0875 30.108 28.1635 26.532C28.7095 24.74 29.6135 24.46 31.2975 24.972C30.4375 29.444 28.4975 33.18 24.3975 35.518C18.2715 39.018 9.5275 37.886 4.9275 33.022C2.1875 30.2 1.0555 26.624 0.5475 22.8C0.4675 22.168 0.3075 21.566 0.1875 20.96C0.198167 19.9254 0.2035 18.8907 0.2035 17.856V17.854ZM3.1995 17.094H28.9435C28.7755 8.89402 23.6695 3.07002 16.6915 3.02002C9.0315 2.96002 3.5315 8.64602 3.1995 17.094Z" fill="#F9FAFB"/>
</svg>
