<?xml version="1.0" encoding="UTF-8"?>
<svg xmlns="http://www.w3.org/2000/svg" xmlns:xlink="http://www.w3.org/1999/xlink" width="24px" height="24px" viewBox="0 0 24 24" version="1.1">
<g id="surface1">
<path style=" stroke:none;fill-rule:evenodd;fill:rgb(0%,48.235294%,70.980394%);fill-opacity:1;" d="M 24 12 C 24 5.371094 18.628906 0 12 0 C 5.371094 0 0 5.371094 0 12 C 0 18.628906 5.371094 24 12 24 C 18.628906 24 24 18.628906 24 12 Z M 24 12 "/>
<path style=" stroke:none;fill-rule:nonzero;fill:rgb(100%,100%,100%);fill-opacity:1;" d="M 5.25 8.25 L 8.25 8.25 L 8.25 18.75 L 5.25 18.75 Z M 5.25 8.25 "/>
<path style=" stroke:none;fill-rule:nonzero;fill:rgb(100%,100%,100%);fill-opacity:1;" d="M 15.375 8.25 C 13.28125 8.25 12.921875 9.011719 12.75 9.75 L 12.75 8.25 L 9.75 8.25 L 9.75 18.75 L 12.75 18.75 L 12.75 12.75 C 12.75 11.777344 13.277344 11.25 14.25 11.25 C 15.199219 11.25 15.75 11.765625 15.75 12.75 L 15.75 18.75 L 18.75 18.75 L 18.75 13.5 C 18.75 10.5 18.359375 8.25 15.375 8.25 Z M 15.375 8.25 "/>
<path style=" stroke:none;fill-rule:nonzero;fill:rgb(100%,100%,100%);fill-opacity:1;" d="M 8.25 6 C 8.25 5.171875 7.578125 4.5 6.75 4.5 C 5.921875 4.5 5.25 5.171875 5.25 6 C 5.25 6.828125 5.921875 7.5 6.75 7.5 C 7.578125 7.5 8.25 6.828125 8.25 6 Z M 8.25 6 "/>
</g>
</svg>
