<?xml version="1.0" encoding="UTF-8"?>
<svg xmlns="http://www.w3.org/2000/svg" xmlns:xlink="http://www.w3.org/1999/xlink" width="64px" height="25px" viewBox="0 0 63 25" version="1.1">
<g id="surface1">
<path style=" stroke:none;fill-rule:nonzero;fill:rgb(79.607844%,21.960784%,21.568628%);fill-opacity:1;" d="M 0 0 L 0 21.363281 L 17.511719 21.363281 L 17.511719 24.945312 L 31.5 24.945312 L 31.5 21.363281 L 63 21.363281 L 63 0 Z M 0 0 "/>
<path style=" stroke:none;fill-rule:nonzero;fill:rgb(100%,100%,100%);fill-opacity:1;" d="M 10.460938 3.582031 L 3.527344 3.582031 L 3.527344 17.785156 L 10.460938 17.785156 L 10.460938 7.164062 L 13.988281 7.164062 L 13.988281 17.785156 L 17.511719 17.785156 L 17.511719 3.582031 Z M 21.039062 3.582031 L 21.039062 21.363281 L 28.09375 21.363281 L 28.09375 17.785156 L 35.027344 17.785156 L 35.027344 3.582031 Z M 31.5 14.203125 L 28.09375 14.203125 L 28.09375 7.164062 L 31.5 7.164062 Z M 45.488281 3.582031 L 38.554688 3.582031 L 38.554688 17.785156 L 45.488281 17.785156 L 45.488281 7.164062 L 49.011719 7.164062 L 49.011719 17.785156 L 52.539062 17.785156 L 52.539062 7.164062 L 56.066406 7.164062 L 56.066406 17.785156 L 59.59375 17.785156 L 59.59375 3.582031 Z M 45.488281 3.582031 "/>
</g>
</svg>
