<?xml version="1.0" encoding="UTF-8"?>
<svg xmlns="http://www.w3.org/2000/svg" xmlns:xlink="http://www.w3.org/1999/xlink" width="64px" height="64px" viewBox="0 0 64 64" version="1.1">
<g id="surface1">
<path style=" stroke:none;fill-rule:nonzero;fill:rgb(0%,77.254903%,55.686277%);fill-opacity:1;" d="M 21.296875 51.46875 C 20.984375 50.894531 20.875 50.230469 20.980469 49.585938 L 7.695312 49.585938 L 27.433594 14.835938 L 35.75 29.652344 L 38.367188 27.703125 L 30.152344 12.933594 C 29.59375 11.910156 28.5625 11.230469 27.398438 11.121094 C 26.222656 11.167969 25.179688 11.886719 24.714844 12.96875 L 4.714844 48.152344 C 4.097656 49.15625 4.03125 50.40625 4.539062 51.464844 C 5.160156 52.453125 6.292969 53.003906 7.453125 52.878906 L 24.199219 52.878906 C 23.042969 53.007812 21.910156 52.464844 21.289062 51.476562 Z M 21.296875 51.46875 "/>
<path style=" stroke:none;fill-rule:nonzero;fill:rgb(6.27451%,52.941179%,45.882353%);fill-opacity:1;" d="M 59.273438 48.222656 L 43.179688 19.644531 C 42.644531 18.621094 41.628906 17.933594 40.476562 17.832031 C 39.328125 17.878906 38.308594 18.585938 37.859375 19.644531 L 35.730469 23.046875 L 35.730469 29.644531 L 40.472656 21.503906 L 56.375 49.644531 L 50.324219 49.644531 C 50.421875 50.214844 50.335938 50.800781 50.082031 51.320312 L 50.03125 51.425781 C 49.363281 52.367188 48.273438 52.917969 47.117188 52.886719 L 56.585938 52.886719 C 57.742188 52.921875 58.835938 52.371094 59.496094 51.425781 C 60.019531 50.394531 59.925781 49.160156 59.253906 48.222656 Z M 59.273438 48.222656 "/>
<path style=" stroke:none;fill-rule:nonzero;fill:rgb(18.431373%,28.627452%,36.862746%);fill-opacity:1;" d="M 50.464844 51.398438 L 50.519531 51.296875 L 50.65625 51.019531 C 50.828125 50.570312 50.871094 50.085938 50.78125 49.617188 C 50.691406 49.105469 50.507812 48.617188 50.238281 48.171875 L 37.667969 26.371094 L 35.769531 23.058594 L 35.734375 23.058594 L 33.816406 26.355469 L 21.261719 48.152344 C 21.015625 48.597656 20.851562 49.082031 20.773438 49.585938 C 20.65625 50.226562 20.761719 50.890625 21.070312 51.46875 C 21.714844 52.457031 22.859375 53 24.035156 52.867188 L 47.449219 52.867188 C 48.640625 52.90625 49.769531 52.351562 50.464844 51.386719 Z M 35.730469 29.671875 L 47.238281 49.601562 L 24.222656 49.601562 Z M 35.730469 29.671875 "/>
</g>
</svg>
