<?xml version="1.0" encoding="UTF-8"?>
<svg xmlns="http://www.w3.org/2000/svg" xmlns:xlink="http://www.w3.org/1999/xlink" width="24px" height="24px" viewBox="0 0 24 24" version="1.1">
<g id="surface1">
<path style="fill:none;stroke-width:2;stroke-linecap:round;stroke-linejoin:round;stroke:rgb(81.960785%,83.529413%,85.882354%);stroke-opacity:1;stroke-miterlimit:4;" d="M 28.334961 21.557617 L 28.334961 25.561523 C 28.334961 25.932617 28.256836 26.298828 28.110352 26.640625 C 27.958984 26.977539 27.744141 27.285156 27.470703 27.53418 C 27.197266 27.788086 26.875 27.978516 26.523438 28.095703 C 26.166992 28.217773 25.795898 28.261719 25.424805 28.227539 C 21.323242 27.783203 17.382812 26.376953 13.920898 24.130859 C 10.698242 22.084961 7.96875 19.355469 5.917969 16.132812 C 3.666992 12.65625 2.265625 8.696289 1.826172 4.575195 C 1.791992 4.204102 1.835938 3.833008 1.953125 3.481445 C 2.075195 3.129883 2.265625 2.807617 2.514648 2.53418 C 2.763672 2.260742 3.066406 2.045898 3.40332 1.894531 C 3.745117 1.743164 4.111328 1.665039 4.482422 1.665039 L 8.481445 1.665039 C 9.125977 1.660156 9.755859 1.889648 10.244141 2.30957 C 10.737305 2.734375 11.054688 3.320312 11.147461 3.959961 C 11.313477 5.239258 11.630859 6.499023 12.080078 7.705078 C 12.260742 8.183594 12.299805 8.701172 12.192383 9.199219 C 12.084961 9.702148 11.84082 10.15625 11.479492 10.517578 L 9.785156 12.211914 C 11.68457 15.551758 14.448242 18.31543 17.788086 20.214844 L 19.482422 18.520508 C 19.84375 18.15918 20.302734 17.915039 20.800781 17.807617 C 21.298828 17.700195 21.816406 17.739258 22.294922 17.919922 C 23.500977 18.369141 24.760742 18.686523 26.040039 18.852539 C 26.689453 18.945312 27.280273 19.272461 27.700195 19.770508 C 28.125 20.268555 28.349609 20.908203 28.334961 21.557617 Z M 28.334961 21.557617 " transform="matrix(0.8,0,0,0.8,0,0)"/>
</g>
</svg>
