<?xml version="1.0" encoding="UTF-8"?>
<svg xmlns="http://www.w3.org/2000/svg" xmlns:xlink="http://www.w3.org/1999/xlink" width="64px" height="64px" viewBox="0 0 64 64" version="1.1">
<g id="surface1">
<path style=" stroke:none;fill-rule:nonzero;fill:rgb(0%,84.705883%,100%);fill-opacity:1;" d="M 37.300781 31.957031 C 37.300781 29 34.902344 26.601562 31.945312 26.601562 C 28.988281 26.601562 26.59375 29 26.59375 31.957031 C 26.59375 34.914062 28.988281 37.3125 31.945312 37.3125 C 34.902344 37.3125 37.300781 34.914062 37.300781 31.957031 Z M 37.300781 31.957031 "/>
<path style=" stroke:none;fill-rule:nonzero;fill:rgb(0%,84.705883%,100%);fill-opacity:1;" d="M 31.945312 44.222656 C 24.425781 44.222656 17.855469 43.339844 12.9375 41.652344 C 9.75 40.566406 7.039062 39.113281 5.109375 37.460938 C 3.0625 35.710938 1.972656 33.800781 1.972656 31.957031 C 1.972656 28.414062 5.855469 24.949219 12.375 22.6875 C 17.707031 20.832031 24.660156 19.796875 31.9375 19.796875 C 39.082031 19.796875 45.941406 20.800781 51.242188 22.632812 C 54.347656 23.703125 56.960938 25.089844 58.816406 26.625 C 60.832031 28.308594 61.898438 30.15625 61.898438 31.957031 C 61.898438 35.636719 57.558594 39.359375 50.558594 41.675781 C 45.609375 43.316406 38.996094 44.222656 31.945312 44.222656 Z M 31.945312 22.355469 C 25.046875 22.355469 18.21875 23.359375 13.226562 25.097656 C 7.230469 27.1875 4.542969 30.046875 4.542969 31.957031 C 4.542969 33.941406 7.433594 37.066406 13.769531 39.230469 C 18.421875 40.820312 24.714844 41.664062 31.945312 41.664062 C 38.730469 41.664062 45.054688 40.8125 49.761719 39.242188 C 56.339844 37.054688 59.347656 33.929688 59.347656 31.957031 C 59.347656 30.945312 58.582031 29.75 57.183594 28.585938 C 55.574219 27.242188 53.226562 26.015625 50.421875 25.046875 C 45.375 23.316406 38.816406 22.355469 31.945312 22.355469 Z M 31.945312 22.355469 "/>
<path style=" stroke:none;fill-rule:nonzero;fill:rgb(0%,84.705883%,100%);fill-opacity:1;" d="M 19.796875 58.644531 C 18.710938 58.644531 17.75 58.410156 16.9375 57.941406 C 13.878906 56.171875 12.8125 51.070312 14.101562 44.296875 C 15.15625 38.742188 17.738281 32.214844 21.375 25.910156 C 24.949219 19.722656 29.238281 14.28125 33.472656 10.601562 C 35.945312 8.449219 38.453125 6.871094 40.714844 6.039062 C 43.179688 5.128906 45.3125 5.128906 46.871094 6.027344 C 50.058594 7.863281 51.113281 13.492188 49.621094 20.703125 C 48.566406 25.824219 46.046875 32 42.527344 38.113281 C 38.773438 44.617188 34.71875 49.867188 30.804688 53.289062 C 28.265625 55.507812 25.652344 57.128906 23.265625 57.972656 C 22.015625 58.421875 20.84375 58.644531 19.796875 58.644531 Z M 22.476562 26.550781 L 23.585938 27.1875 C 20.136719 33.164062 17.589844 39.574219 16.609375 44.777344 C 15.425781 51.019531 16.566406 54.773438 18.207031 55.722656 C 18.613281 55.957031 19.148438 56.085938 19.796875 56.085938 C 21.921875 56.085938 25.257812 54.742188 29.121094 51.371094 C 32.820312 48.136719 36.691406 43.105469 40.308594 36.84375 C 43.703125 30.964844 46.113281 25.054688 47.113281 20.203125 C 48.511719 13.40625 47.308594 9.246094 45.589844 8.257812 C 44.714844 7.753906 43.296875 7.820312 41.589844 8.449219 C 39.617188 9.171875 37.386719 10.59375 35.148438 12.542969 C 31.125 16.042969 27.019531 21.246094 23.585938 27.199219 Z M 22.476562 26.550781 "/>
<path style=" stroke:none;fill-rule:nonzero;fill:rgb(0%,84.705883%,100%);fill-opacity:1;" d="M 44.097656 58.675781 C 41.195312 58.675781 37.515625 56.929688 33.675781 53.621094 C 29.386719 49.929688 25.023438 44.4375 21.375 38.132812 C 17.792969 31.945312 15.230469 25.515625 14.15625 20 C 13.523438 16.777344 13.40625 13.824219 13.8125 11.445312 C 14.261719 8.851562 15.316406 7.007812 16.886719 6.101562 C 20.0625 4.257812 25.472656 6.15625 30.976562 11.050781 C 34.878906 14.515625 38.976562 19.785156 42.507812 25.886719 C 46.273438 32.394531 48.800781 38.527344 49.800781 43.625 C 50.453125 46.933594 50.558594 50.003906 50.101562 52.5 C 49.609375 55.15625 48.5 57.046875 46.902344 57.972656 C 46.101562 58.441406 45.152344 58.675781 44.097656 58.675781 Z M 23.59375 36.851562 C 27.050781 42.828125 31.339844 48.234375 35.347656 51.679688 C 40.160156 55.820312 43.980469 56.714844 45.632812 55.753906 C 47.347656 54.761719 48.609375 50.699219 47.308594 44.128906 C 46.347656 39.308594 43.925781 33.441406 40.296875 27.179688 C 36.894531 21.300781 32.980469 16.257812 29.28125 12.96875 C 24.097656 8.363281 19.894531 7.328125 18.175781 8.320312 C 17.300781 8.820312 16.652344 10.089844 16.339844 11.882812 C 15.988281 13.953125 16.097656 16.597656 16.671875 19.507812 C 17.695312 24.746094 20.148438 30.902344 23.59375 36.851562 Z M 23.59375 36.851562 "/>
</g>
</svg>
