<?xml version="1.0" encoding="UTF-8"?>
<svg xmlns="http://www.w3.org/2000/svg" xmlns:xlink="http://www.w3.org/1999/xlink" width="64px" height="64px" viewBox="0 0 64 64" version="1.1">
<g id="surface1">
<path style=" stroke:none;fill-rule:evenodd;fill:rgb(38.039216%,85.490197%,98.431373%);fill-opacity:1;" d="M 37.769531 32.046875 C 37.769531 28.828125 35.160156 26.21875 31.945312 26.21875 C 28.726562 26.21875 26.117188 28.828125 26.117188 32.046875 C 26.117188 35.265625 28.726562 37.871094 31.945312 37.871094 C 35.160156 37.871094 37.769531 35.265625 37.769531 32.046875 Z M 37.769531 32.046875 "/>
<path style=" stroke:none;fill-rule:nonzero;fill:rgb(38.039216%,85.490197%,98.431373%);fill-opacity:1;" d="M 31.945312 53.472656 C 36.515625 57.921875 41.027344 60.554688 44.664062 60.554688 C 45.851562 60.554688 46.980469 60.300781 47.921875 59.738281 C 51.179688 57.859375 52.367188 53.160156 51.242188 46.457031 C 51.054688 45.265625 50.800781 44.074219 50.488281 42.820312 C 51.742188 42.445312 52.871094 42.070312 53.996094 41.695312 C 60.324219 39.25 63.832031 35.867188 63.832031 32.171875 C 63.832031 28.410156 60.324219 25.027344 53.996094 22.648438 C 52.871094 22.210938 51.742188 21.832031 50.488281 21.519531 C 50.800781 20.265625 51.054688 19.078125 51.242188 17.886719 C 52.304688 11.058594 51.117188 6.296875 47.859375 4.417969 C 46.917969 3.851562 45.789062 3.601562 44.597656 3.601562 C 41.027344 3.601562 36.453125 6.234375 31.882812 10.679688 C 27.371094 6.234375 22.859375 3.601562 19.226562 3.601562 C 18.035156 3.601562 16.90625 3.851562 15.96875 4.417969 C 12.710938 6.296875 11.519531 10.996094 12.648438 17.699219 C 12.835938 18.890625 13.085938 20.078125 13.398438 21.332031 C 12.144531 21.707031 11.019531 22.085938 9.890625 22.460938 C 3.5625 24.902344 0.0546875 28.285156 0.0546875 31.984375 C 0.0546875 35.742188 3.5625 39.125 9.890625 41.507812 C 11.019531 41.945312 12.144531 42.320312 13.398438 42.632812 C 13.085938 43.886719 12.835938 45.078125 12.648438 46.269531 C 11.582031 52.972656 12.773438 57.734375 15.96875 59.550781 C 16.90625 60.113281 18.035156 60.363281 19.226562 60.363281 C 22.859375 60.488281 27.371094 57.859375 31.945312 53.472656 Z M 28.433594 45.015625 C 29.5625 45.078125 30.753906 45.078125 31.945312 45.078125 C 33.132812 45.078125 34.324219 45.078125 35.453125 45.015625 C 34.324219 46.519531 33.132812 47.898438 31.945312 49.210938 C 30.753906 47.898438 29.5625 46.519531 28.433594 45.015625 Z M 20.667969 38.5625 C 21.292969 39.625 21.855469 40.628906 22.546875 41.632812 C 20.605469 41.382812 18.785156 41.066406 17.03125 40.691406 C 17.597656 39 18.222656 37.246094 18.976562 35.492188 C 19.476562 36.496094 20.039062 37.558594 20.667969 38.5625 Z M 17.03125 23.460938 C 18.785156 23.085938 20.605469 22.773438 22.546875 22.523438 C 21.917969 23.523438 21.292969 24.527344 20.667969 25.59375 C 20.039062 26.65625 19.476562 27.660156 18.976562 28.726562 C 18.160156 26.910156 17.535156 25.152344 17.03125 23.460938 Z M 20.476562 32.046875 C 21.292969 30.355469 22.171875 28.664062 23.171875 26.972656 C 24.113281 25.34375 25.175781 23.714844 26.242188 22.085938 C 28.121094 21.957031 30 21.894531 31.945312 21.894531 C 33.949219 21.894531 35.828125 21.957031 37.644531 22.085938 C 38.773438 23.714844 39.773438 25.34375 40.714844 26.972656 C 41.71875 28.664062 42.59375 30.355469 43.410156 32.046875 C 42.59375 33.738281 41.71875 35.429688 40.714844 37.121094 C 39.773438 38.75 38.710938 40.378906 37.644531 42.007812 C 35.765625 42.132812 33.886719 42.195312 31.945312 42.195312 C 29.9375 42.195312 28.058594 42.132812 26.242188 42.007812 C 25.113281 40.378906 24.113281 38.75 23.171875 37.121094 C 22.171875 35.429688 21.292969 33.738281 20.476562 32.046875 Z M 44.976562 28.664062 L 43.285156 25.53125 C 42.65625 24.464844 42.09375 23.460938 41.40625 22.460938 C 43.347656 22.710938 45.164062 23.023438 46.917969 23.398438 C 46.355469 25.152344 45.726562 26.910156 44.976562 28.664062 Z M 44.976562 35.429688 C 45.726562 37.183594 46.355469 38.9375 46.917969 40.628906 C 45.164062 41.003906 43.347656 41.320312 41.40625 41.570312 C 42.03125 40.566406 42.65625 39.5625 43.285156 38.5 C 43.847656 37.558594 44.410156 36.496094 44.976562 35.429688 Z M 46.417969 57.167969 C 45.914062 57.484375 45.289062 57.609375 44.597656 57.609375 C 41.53125 57.609375 37.707031 55.101562 33.949219 51.34375 C 35.765625 49.402344 37.519531 47.207031 39.273438 44.765625 C 42.21875 44.515625 45.039062 44.074219 47.667969 43.449219 C 47.984375 44.578125 48.171875 45.703125 48.359375 46.832031 C 49.234375 52.15625 48.546875 55.980469 46.417969 57.167969 Z M 49.675781 24.152344 C 56.691406 26.15625 60.890625 29.226562 60.890625 32.046875 C 60.890625 34.488281 58.007812 36.933594 52.933594 38.875 C 51.929688 39.25 50.800781 39.625 49.675781 39.941406 C 48.859375 37.371094 47.859375 34.738281 46.605469 32.046875 C 47.859375 29.351562 48.921875 26.71875 49.675781 24.152344 Z M 44.664062 6.484375 C 45.351562 6.484375 45.914062 6.609375 46.480469 6.921875 C 48.546875 8.113281 49.296875 11.871094 48.421875 17.261719 C 48.234375 18.324219 47.984375 19.453125 47.730469 20.644531 C 45.101562 20.078125 42.28125 19.640625 39.335938 19.328125 C 37.644531 16.882812 35.828125 14.691406 34.011719 12.75 C 37.769531 9.050781 41.59375 6.484375 44.664062 6.484375 Z M 35.453125 19.078125 C 34.324219 19.015625 33.132812 19.015625 31.945312 19.015625 C 30.753906 19.015625 29.5625 19.015625 28.433594 19.078125 C 29.5625 17.574219 30.753906 16.195312 31.945312 14.878906 C 33.132812 16.195312 34.324219 17.636719 35.453125 19.078125 Z M 17.472656 6.921875 C 17.972656 6.609375 18.597656 6.484375 19.289062 6.484375 C 22.359375 6.484375 26.179688 8.988281 29.9375 12.75 C 28.121094 14.691406 26.367188 16.882812 24.613281 19.328125 C 21.667969 19.578125 18.847656 20.015625 16.21875 20.644531 C 15.90625 19.515625 15.71875 18.386719 15.527344 17.261719 C 14.652344 11.933594 15.339844 8.175781 17.472656 6.921875 Z M 14.214844 39.941406 C 7.195312 37.933594 3 34.867188 3 32.046875 C 3 29.601562 5.878906 27.160156 10.957031 25.214844 C 11.957031 24.839844 13.085938 24.464844 14.214844 24.152344 C 15.027344 26.71875 16.03125 29.351562 17.28125 32.046875 C 16.03125 34.738281 14.964844 37.433594 14.214844 39.941406 Z M 15.527344 46.832031 C 15.71875 45.765625 15.96875 44.640625 16.21875 43.449219 C 18.847656 44.011719 21.667969 44.449219 24.613281 44.765625 C 26.304688 47.207031 28.121094 49.402344 29.9375 51.34375 C 26.179688 55.039062 22.359375 57.609375 19.289062 57.609375 C 18.597656 57.609375 18.035156 57.484375 17.472656 57.167969 C 15.339844 55.980469 14.652344 52.15625 15.527344 46.832031 Z M 15.527344 46.832031 "/>
</g>
</svg>
