<?xml version="1.0" encoding="UTF-8"?>
<svg xmlns="http://www.w3.org/2000/svg" xmlns:xlink="http://www.w3.org/1999/xlink" width="24px" height="24px" viewBox="0 0 24 24" version="1.1">
<g id="surface1">
<path style=" stroke:none;fill-rule:nonzero;fill:rgb(0%,47.058824%,84.313726%);fill-opacity:1;" d="M 12 24 C 5.375 24 0 18.625 0 12 C 0 5.375 5.375 0 12 0 C 18.625 0 24 5.375 24 12 C 24 18.625 18.625 24 12 24 Z M 12 24 "/>
<path style=" stroke:none;fill-rule:nonzero;fill:rgb(100%,100%,100%);fill-opacity:1;" d="M 12.027344 16.40625 C 9.59375 16.40625 8.484375 15.167969 8.484375 14.257812 C 8.484375 13.792969 8.847656 13.472656 9.316406 13.472656 C 10.359375 13.472656 10.085938 15.035156 12.027344 15.035156 C 13.023438 15.035156 13.605469 14.4375 13.605469 13.875 C 13.605469 13.535156 13.410156 13.160156 12.757812 13 L 10.597656 12.449219 C 8.855469 12.003906 8.546875 11.039062 8.546875 10.136719 C 8.546875 8.269531 10.253906 7.597656 11.878906 7.597656 C 13.378906 7.597656 15.15625 8.421875 15.15625 9.542969 C 15.15625 10.023438 14.753906 10.285156 14.289062 10.285156 C 13.398438 10.285156 13.546875 9.035156 11.757812 9.035156 C 10.871094 9.035156 10.402344 9.449219 10.402344 10.035156 C 10.402344 10.617188 11.089844 10.8125 11.699219 10.957031 L 13.296875 11.316406 C 15.054688 11.710938 15.519531 12.742188 15.519531 13.722656 C 15.515625 15.234375 14.34375 16.40625 12.027344 16.40625 M 18.742188 13.195312 C 18.8125 12.804688 18.847656 12.40625 18.847656 12 C 18.847656 8.195312 15.78125 5.113281 12 5.113281 C 11.59375 5.113281 11.195312 5.148438 10.808594 5.214844 C 10.214844 4.871094 9.527344 4.675781 8.792969 4.675781 C 6.542969 4.675781 4.71875 6.511719 4.71875 8.773438 C 4.71875 9.511719 4.914062 10.203125 5.253906 10.800781 C 5.1875 11.191406 5.152344 11.589844 5.152344 11.996094 C 5.152344 15.800781 8.21875 18.886719 11.996094 18.886719 C 12.402344 18.886719 12.800781 18.847656 13.1875 18.78125 C 13.78125 19.125 14.472656 19.320312 15.207031 19.320312 C 17.457031 19.320312 19.277344 17.488281 19.277344 15.226562 C 19.277344 14.488281 19.085938 13.796875 18.742188 13.195312 "/>
</g>
</svg>
