<?xml version="1.0" encoding="UTF-8"?>
<svg xmlns="http://www.w3.org/2000/svg" xmlns:xlink="http://www.w3.org/1999/xlink" width="64px" height="64px" viewBox="0 0 64 64" version="1.1">
<g id="surface1">
<path style=" stroke:none;fill-rule:nonzero;fill:rgb(100%,24.313726%,0%);fill-opacity:1;" d="M 59.917969 8.550781 C 52.777344 0.0742188 38.667969 -2.4375 28.472656 2.949219 L 10.558594 12.417969 C 5.660156 14.964844 2.28125 19.105469 1.25 23.824219 C 1.023438 24.875 0.910156 25.941406 0.90625 27.011719 C 0.917969 29.917969 1.777344 32.777344 3.410156 35.347656 C 1.878906 37.277344 0.835938 39.445312 0.339844 41.714844 C -0.6875 46.527344 0.664062 51.476562 4.09375 55.449219 C 11.234375 63.925781 25.375 66.4375 35.539062 61.050781 L 53.433594 51.582031 C 58.332031 49.035156 61.703125 44.886719 62.71875 40.164062 C 62.945312 39.113281 63.0625 38.050781 63.0625 36.984375 C 63.058594 34.082031 62.207031 31.226562 60.589844 28.65625 C 62.121094 26.730469 63.164062 24.566406 63.660156 22.292969 C 63.882812 21.242188 63.996094 20.179688 64 19.113281 C 64 15.328125 62.574219 11.636719 59.917969 8.558594 Z M 59.917969 8.550781 Z M 59.917969 8.550781 "/>
<path style=" stroke:none;fill-rule:nonzero;fill:rgb(100%,100%,100%);fill-opacity:1;" d="M 26.71875 56.25 C 25.550781 56.5 24.347656 56.628906 23.140625 56.628906 C 18.476562 56.628906 14.109375 54.734375 11.453125 51.550781 C 9.855469 49.699219 9 47.480469 9 45.203125 C 9 44.5625 9.070312 43.925781 9.199219 43.292969 C 9.308594 42.824219 9.453125 42.363281 9.632812 41.910156 L 9.972656 41.058594 L 10.882812 41.632812 C 13.007812 42.925781 15.375 43.90625 17.894531 44.539062 L 18.558594 44.707031 L 18.496094 45.257812 C 18.496094 45.351562 18.496094 45.449219 18.496094 45.542969 C 18.496094 46.230469 18.753906 46.902344 19.234375 47.460938 C 20.023438 48.433594 21.339844 49.015625 22.753906 49.019531 C 23.117188 49.019531 23.476562 48.984375 23.828125 48.90625 C 24.21875 48.820312 24.589844 48.683594 24.929688 48.507812 L 42.824219 38.992188 C 43.917969 38.417969 44.574219 37.421875 44.570312 36.351562 C 44.566406 35.660156 44.300781 34.992188 43.8125 34.433594 C 43.011719 33.476562 41.695312 32.90625 40.289062 32.910156 C 39.925781 32.90625 39.566406 32.945312 39.214844 33.023438 C 38.824219 33.105469 38.457031 33.242188 38.117188 33.421875 L 31.296875 37.035156 C 30.171875 37.625 28.945312 38.070312 27.660156 38.359375 C 26.488281 38.609375 25.285156 38.734375 24.078125 38.738281 C 19.417969 38.738281 15.050781 36.84375 12.394531 33.667969 C 10.796875 31.8125 9.941406 29.59375 9.941406 27.316406 C 9.941406 26.679688 10.007812 26.039062 10.140625 25.40625 C 10.757812 22.570312 12.785156 20.082031 15.722656 18.539062 L 33.636719 9.078125 C 34.761719 8.484375 35.988281 8.039062 37.273438 7.75 C 38.441406 7.5 39.644531 7.375 40.855469 7.375 C 45.527344 7.367188 49.910156 9.257812 52.578125 12.441406 C 54.164062 14.300781 55.007812 16.519531 55 18.796875 C 55 19.4375 54.929688 20.078125 54.800781 20.710938 C 54.691406 21.179688 54.546875 21.644531 54.367188 22.097656 L 54.027344 22.949219 L 53.117188 22.390625 C 50.996094 21.097656 48.625 20.117188 46.105469 19.484375 L 45.441406 19.3125 L 45.503906 18.765625 C 45.503906 18.671875 45.503906 18.570312 45.503906 18.480469 C 45.503906 17.789062 45.246094 17.117188 44.765625 16.554688 C 43.964844 15.597656 42.652344 15.027344 41.246094 15.027344 C 40.886719 15.035156 40.53125 15.078125 40.183594 15.160156 C 39.792969 15.246094 39.421875 15.378906 39.082031 15.5625 L 21.167969 25.023438 C 20.28125 25.492188 19.671875 26.242188 19.484375 27.101562 C 19.441406 27.28125 19.414062 27.464844 19.402344 27.648438 C 19.402344 28.335938 19.660156 29.007812 20.140625 29.566406 C 20.941406 30.523438 22.257812 31.089844 23.660156 31.089844 C 24.023438 31.09375 24.386719 31.054688 24.734375 30.976562 C 25.125 30.894531 25.5 30.757812 25.835938 30.578125 L 32.671875 26.945312 C 33.796875 26.351562 35.023438 25.90625 36.308594 25.621094 C 37.480469 25.371094 38.683594 25.242188 39.890625 25.242188 C 44.554688 25.242188 48.921875 27.136719 51.582031 30.3125 C 53.175781 32.164062 54.035156 34.386719 54.035156 36.660156 C 54.035156 37.308594 53.96875 37.953125 53.828125 38.59375 C 53.214844 41.429688 51.1875 43.921875 48.246094 45.460938 L 30.363281 54.921875 C 29.238281 55.515625 28.007812 55.964844 26.71875 56.25 Z M 26.71875 56.25 Z M 26.71875 56.25 "/>
</g>
</svg>
