<?xml version="1.0" encoding="UTF-8"?>
<svg xmlns="http://www.w3.org/2000/svg" xmlns:xlink="http://www.w3.org/1999/xlink" width="24px" height="24px" viewBox="0 0 24 24" version="1.1">
<defs>
<linearGradient id="linear0" gradientUnits="userSpaceOnUse" x1="256" y1="0" x2="256" y2="510.132202" gradientTransform="matrix(0.046875,0,0,0.046875,0,0)">
<stop offset="0" style="stop-color:rgb(25.490196%,73.72549%,90.588235%);stop-opacity:1;"/>
<stop offset="1" style="stop-color:rgb(13.333333%,65.098039%,86.27451%);stop-opacity:1;"/>
</linearGradient>
</defs>
<g id="surface1">
<path style=" stroke:none;fill-rule:nonzero;fill:url(#linear0);" d="M 24 12 C 24 5.371094 18.628906 0 12 0 C 5.371094 0 0 5.371094 0 12 C 0 18.628906 5.371094 24 12 24 C 18.628906 24 24 18.628906 24 12 Z M 24 12 "/>
<path style=" stroke:none;fill-rule:nonzero;fill:rgb(100%,100%,100%);fill-opacity:1;" d="M 17.839844 6.90625 L 15.699219 17.710938 C 15.699219 17.710938 15.398438 18.460938 14.574219 18.097656 L 9.628906 14.304688 L 7.828125 13.4375 L 4.800781 12.421875 C 4.800781 12.421875 4.335938 12.257812 4.289062 11.898438 C 4.242188 11.535156 4.8125 11.34375 4.8125 11.34375 L 16.851562 6.625 C 16.851562 6.617188 17.839844 6.183594 17.839844 6.90625 Z M 17.839844 6.90625 "/>
<path style=" stroke:none;fill-rule:nonzero;fill:rgb(82.352942%,89.411765%,94.117647%);fill-opacity:1;" d="M 9.242188 17.585938 C 9.242188 17.585938 9.097656 17.574219 8.921875 17.007812 C 8.742188 16.4375 7.828125 13.4375 7.828125 13.4375 L 15.097656 8.820312 C 15.097656 8.820312 15.519531 8.570312 15.5 8.820312 C 15.5 8.820312 15.578125 8.867188 15.351562 9.074219 C 15.125 9.285156 9.640625 14.21875 9.640625 14.21875 "/>
<path style=" stroke:none;fill-rule:nonzero;fill:rgb(70.980394%,81.176472%,89.411765%);fill-opacity:1;" d="M 11.523438 15.757812 L 9.566406 17.546875 C 9.566406 17.546875 9.414062 17.664062 9.25 17.585938 L 9.625 14.273438 "/>
</g>
</svg>
