<?xml version="1.0" encoding="UTF-8"?>
<svg width="752pt" height="752pt" version="1.1" viewBox="0 0 752 752" xmlns="http://www.w3.org/2000/svg">
 <g>
  <path d="m376 165.26c-55.879-0.011718-109.48 22.172-149 61.68-39.523 39.504-61.734 93.09-61.746 148.97-0.011718 55.879 22.172 109.48 61.68 149 39.504 39.52 93.09 61.73 148.97 61.742 55.879 0.015624 109.48-22.172 149-61.676 39.52-39.504 61.73-93.09 61.742-148.97-0.046876-55.859-22.254-109.42-61.746-148.93-39.488-39.508-93.039-61.738-148.9-61.812zm0 407.28c-52.109 0.011719-102.09-20.68-138.95-57.52-36.859-36.84-57.574-86.812-57.586-138.92-0.011719-52.113 20.676-102.1 57.516-138.95 36.84-36.859 86.812-57.57 138.93-57.586 52.113-0.011719 102.09 20.68 138.95 57.52 36.855 36.84 57.57 86.812 57.582 138.92-0.074218 52.078-20.793 102-57.617 138.82s-86.746 57.543-138.82 57.617z"/>
  <path d="m294.17 377h50.859v-14.207h-50.859v-36.137h57.207v-14.535h-74.211v121.57h78.566v-14.586h-61.562z"/>
  <path d="m458.17 402.1c-3.7578-6.3125-8.3516-13.387-13.781-21.215-5.4297-7.832-11.207-15.93-17.332-24.297-6.125-8.2422-12.328-16.242-18.613-24.012-6.2812-7.7656-12.156-14.586-17.617-20.457h-13.496v121.57h16.668v-94.715c3.1562 3.7578 6.7266 8.082 10.703 12.977 3.9766 4.8945 7.957 10.133 11.934 15.723 4.1055 5.5586 8.2227 11.32 12.359 17.285 4.1367 5.9688 8.1445 11.84 12.027 17.617 3.8555 5.6523 7.4414 11.16 10.754 16.527 3.3164 5.3672 6.2656 10.215 8.8555 14.539h14.207v-121.52h-16.668z"/>
 </g>
</svg>
